<svg xmlns="http://www.w3.org/2000/svg" viewBox="0 0 737.79 290.98"><defs><style>.cls-1{fill:#fff;}</style></defs><title>catch--footer</title><g id="レイヤー_2" data-name="レイヤー 2"><g id="レイヤー_1-2" data-name="レイヤー 1"><path class="cls-1" d="M5.6,290.81c-7.68,1.24-6.58-4.45-2-13.37,7.6-14.92,45.75-74.43,78.49-128.27C113.77,97.29,119,95.73,121.39,95a16.54,16.54,0,0,0,5.11-2.43c2.15-1.41-.8,3.69-5.26,6.9-3.55,2.53-6.84,6.44-16.77,21.2-11.22,16.4-18.88,27.42-32.64,49.91-19.94,32.56-54.49,89-60.31,100.61-3.6,7.16-6.27,14-2.86,13.44s9.92-2.85,45.72-22c35.9-19,63.42-35.34,67.6-37.44.93-.33,3.49.5-2.51,4C69.62,258,14.49,289.37,5.6,290.81Z"/><path class="cls-1" d="M126.72,188.52c-3.47,6.43-3.19,8.16-3,8.13,3.08-.5,16.68-13.19,35.24-34.86,13.57-15.89,32.9-44.44,47.14-62,2.55-3.25,7.79-6.41,1.63,1.16-12.08,14.94-32.74,45.66-48.16,63.8-17.5,20.61-31.59,33.74-36.89,34.6-2,.33-2.64-2.24.4-10,.67-1.71,4.49-9.44,4.62-10.17.45-1.14.82-3.33,1.83-3.85,2.42-1.28,4.16.39,3.49,2.1C132.48,178.7,127.49,187,126.72,188.52Zm19.51-42.09c.52-1.33,3.38-3.75,4.24-3.89.68-.11,1.85.59,1.1,2.49-.66,1.71-4.42,5.16-5.27,5.3C145.28,150.49,145.78,147.57,146.23,146.43Z"/><path class="cls-1" d="M218.26,165.15c-1.61.44-14.73,4.52-38.15,16.14q-10.79,5.49-18.78,10c-3.16,6-6.46,12.42-10.58,20.91,5.06,5,8.64,15.13,3.22,29-5.57,14.23-25.73,40.43-33.42,41.68-7.86,1.27,13.22-43.21,23.48-65,.77-1.55,1.46-2.9,2-4.23l-2.68-1.34c-6.47-2.69-10.73-3.24-10-5.14,1-2.47,9.73-8.51,23.8-16.66,5.59-11,13.38-25.63,27.33-51.89,26.67-50.18,36.69-62.3,41.21-64.45,2.59-1.31,4-.12,3.54,2.8-.43,2.74-1.13,2.5-2.57,2.91-3,.66-10.31,7.53-36.49,57.29-13.78,26.23-20.68,38.54-26.69,49.83l11.84-6.54c21.52-11.67,47.59-21.05,49.91-21.24,2.24,0,1.65,1.51.2,3.16C224.85,163,222.07,164,218.26,165.15Zm-63.2,29.44c-9.81,5.86-15.58,10-15.81,10.56-.37.95,4,1.13,8.66,4.47C150.25,204.44,152.55,199.8,155.06,194.59ZM149,215.84l-2.49,5.56c-15.95,34.23-25.22,56.71-22.66,56.29,2.74-.44,20.15-18.37,27.35-36.78C156.31,227.81,153.41,220.1,149,215.84Z"/><path class="cls-1" d="M215.16,185.74c-9.18,2.2-9.84-5.51-2.84-14.82,6.83-9.29,15-13.81,18.29-13.63,3,0,2.86,2.91-.21,7.5-4.35,6.21-12.31,11.41-19.35,14.69-.18,2.52,1.69,3.46,4.59,3,5.3-.86,11.42-5.05,17.76-9.81,2.06-1.58,2.88-.83.11,1.76C227.48,180,219,185,215.16,185.74Zm-3.56-8.49c5.7-2.7,13.76-9,16.76-13.38,1.18-1.79,1.67-3.47.63-3.65-1.66-.27-8.09,3.08-14.11,11.53A24.27,24.27,0,0,0,211.6,177.25Z"/><path class="cls-1" d="M351.05,157a75.29,75.29,0,0,1,5.72-10.53,28.94,28.94,0,0,1,1.74-2.41c-7.64,1.95-16,1.16-21.8-3.58A76,76,0,0,1,324,159.39c-3.71,4.16-9.44,9-13.37,9.64-3.41.55-3.15-2.16-1.08-6.23,1.23-2.33,3.2-5.32,3.94-7.21.37-1,.18-1.28-.51-1.17-1.36.22-4.9,4.35-14.23,12.27-10.73,9-14.09,11.88-16.8,12.67-4.4,1.43-3.81-2.94-2.55-6.16,2-5.13,10.21-20,17.78-29.9,5.89-7.71,8.07-10,9.44-10.24,1.2-.2,2.05-.34.6,1.32-9.86,11.73-21.36,30.48-23.68,36-1.73,4-1.47,5.4-.28,5.2,2.23-.36,7.37-4.92,15.38-11.91,7.94-6.8,12.82-11.5,15-11.86,2.05-.33,3.09,1.1,2.35,3-.67,1.71-3.36,6.94-3.95,8.46-1,2.12-.87,2.63-.18,2.52,1.7-.28,5.84-3.08,10-7.48,5.72-6.44,10.49-14.14,12.55-19.81l-.29-.49a4.81,4.81,0,0,1-.71-4.33,9,9,0,0,1,5.49-4.62c2.05-.33,1.45,2.43,0,6l-1,2.66c5.27,4.12,16.94,4.54,24.59,2.59.78,0,1.58.45,1.53,1a4.4,4.4,0,0,1-1,2.11c-4.87,6.3-6.81,9.64-8.17,12.7-1.6,3.28-1.39,5.21.37,4.39,2.19-.72.94,1.27-.82,2.08C349.74,164.83,349,161.93,351.05,157Zm21.6-34.79c.79-1.19,2.88-3.66,3.75-3.45,1.47-.06,1.7,2.21.52,4s-4.22,4.23-4.93,4C371,126.71,371.79,123.57,372.65,122.18Z"/><path class="cls-1" d="M479.36,49.78C434.15,111,384.67,164.68,372.1,166.54c-6.42.86-3.78-7.92,23.11-54.59,6.21-11,11.74-20.21,16.59-28.11-4.19.5-8.9,1.09-14.05,1.57-5.39.69-6.63.18-8.51.49s-.34-1.19,1-1.77c2.86-1.17,7.93-1.46,14.76-2.57.35,0,3-.31,8.74-1.06,12.52-20.16,19.6-29.66,21.48-30,1.37-.22,1,3-1.14,6.59-1.5,2.2-7.53,9-10.82,12.95l-5.93,9.85,12-1.94c15.72-2.54,16.7-3.41,16.3-1.57-.45,2.38-5.26,2.81-18.07,4.88l-3.76.61c-2.05.33-5,1-8.37,1.36-5,8.63-11.43,19.81-16.7,29.19-17.24,30.17-28.92,51.44-24.64,50.75,11.1-1.8,77.56-77.63,103.88-114.25C480.39,45.53,481.67,46.74,479.36,49.78Z"/><path class="cls-1" d="M489.09,33.1c1.53-.25.09,4.25-.92,6-1.4,2.36-5.18,6.71-8.84,11.57-.71,1-12.5,20.51-22.35,37.93-14.07,24.5-26.22,47.8-31.42,58.24,12.55-8.79,20.05-14.45,23.88-15.25,3.25-.52,2.4,2.46.84,6.45-1.93,4.93-3.16,7.26-.09,6.77,11.62-1.89,36.26-17.43,54.25-29.06,2.49-1.47,3.41.69-.34,2.9-23.24,14.43-40.38,27.16-54.63,29.65-5,.8-5.86-2.6-4-7.35,1-2.66,2.37-4.83,1.34-4.66-1.7.28-12.81,7.41-21.16,13.21-1.81,1.36-3.63,2.72-4.65,2.88s-1.06-1.78,1-5.85c5.82-11.61,17.58-34.31,32-59.76C477.9,44.51,486.35,33.54,489.09,33.1Z"/><path class="cls-1" d="M534.65,113.35c7.47-6,12.11-7.65,15-8.12,3.93-.63,1.74,4.17.32,3.68-1.85-.59-6.41.87-13.66,6.31s-11.08,10.32-12.17,13.52c-1.39,4,3.24,4.81,9.17,3.14,13.24-3.57,46.65-22.31,61.6-31.49,1.08-.71,4.59-1.1,1,1.43C579.58,113,545.52,131,533.16,134.75c-8.55,2.63-14.79,2.22-13.12-4.1C521.24,126.37,526.27,120,534.65,113.35Z"/><path class="cls-1" d="M572.68,130.66c-2,4.42-2.63,7.53-.24,7.15,7.69-1.25,25.06-19.88,31.52-36.4A34.92,34.92,0,0,0,606.07,94a28.74,28.74,0,0,1-7.86,2.52c-4.62.74-7.31-1-5.09-5.4a14.17,14.17,0,0,1,9.49-6.69c4.1-.67,7,.81,7.63,4.63,17.2-10.43,41.43-38,69.14-74.49,3.26-4.26,4.28-3.18,1.18,1.05-29.94,39.34-53,65.47-70.16,75.9a28.64,28.64,0,0,1-2.12,8.7C599.37,123,580.4,139.54,571,141.06c-4.27.69-4.49-4.07-1.43-10.26,4.42-9.24,11-17.42,20.46-27,2.36-2.33,5.15-4.56,6.88-4.49,2.68.1,1.7,1-1.31,3.77C586.05,111.6,576,123.71,572.68,130.66Zm33.48-39.38c-.37-3.14-2.34-4.24-4.83-4a7.18,7.18,0,0,0-5.21,3.51c-1.09,2,.37,3.14,3.61,2.62A25.64,25.64,0,0,0,606.16,91.28Z"/><path class="cls-1" d="M606.19,144.78c15.19-33.92,31.5-63.77,47.29-91C677.88,11.39,686.16.45,688.89,0c1.54-.25.1,4.25-1.08,6-1.4,2.36-5.18,6.71-8.85,11.57-.71,1-12.67,20.54-22.52,38-8.3,14.68-31,54.8-47.6,90.19-8.19,17.69-6.28,19.33-8.06,19.8C598.49,166.12,599.6,159.18,606.19,144.78Z"/><path class="cls-1" d="M735,90c-15.5,11.4-29.76,19.22-36.12,19.54-6.78.56-6.67-5.85.74-15.41,3.35-4.45,8.18-9.86,8.55-10.81.3-.76.25-1.46-2.74-2.4a3.36,3.36,0,0,1-2.79-3.1c-7.57,7.09-21.84,17.4-33.89,22-8.64,18.83-25.14,34.83-33.51,36.19-4.44.72-5.32-3.58-2.57-10.61,3.86-9.87,11.3-19.07,17.77-25.81-1.23-1.75-1.22-4.25,0-7.47,2.75-7,10.27-13.58,16.59-14.6,7.52-1.22,7.94,6.71,3.48,18.1,11.27-4.67,24.77-12.19,32.06-19.77a13.4,13.4,0,0,1,1.78-4.56c2.09-3.71,5.17-5.46,6.22-5.27,1.22.16,1.7,1,1.11,2.49-.82,2.09-1.55,1.49-4.64,4.48-.24.22-.24.22-.32.41a5.92,5.92,0,0,0-.54,1A2.37,2.37,0,0,0,708,77.63c5.21,1.82,5.6,2.47,4.93,4.17-.59,1.52-6.34,7.61-10.63,13.28-4.08,5.11-6.14,10.77,0,10.32,6.17-.65,17.91-7.35,32.31-17.15C738.26,85.69,739.28,86.77,735,90Zm-70.13,11.18c-5.6,1.62-9.84,1.42-12.51.08a55.78,55.78,0,0,0-5.16,5.81,75.15,75.15,0,0,0-11.44,19.45c-1.56,4-1.33,6.26,0,6C642.45,131.44,656.5,117.61,664.86,101.14Zm-9.1-3.32c2.06,1.26,5.6,1.22,11-.72.29-.76.76-1.54,1.13-2.49,3.64-9.3,2.18-14.58-2.6-13.8-4.61.75-9.1,4.85-10.73,9-1,2.46-1.17,4.63-.48,6.12,4.32-4.08,7.7-6.58,8.38-6.69,1-.17,1.32.32,1,1.08C663.26,90.92,660,93.58,655.76,97.82Z"/></g></g></svg>