<svg xmlns="http://www.w3.org/2000/svg" viewBox="0 0 123.17 125.8"><defs><style>.cls-1{fill:none;stroke:#ca3c5c;stroke-miterlimit:10;stroke-width:4px;}.cls-2{fill:#ca3c5c;}.cls-3{fill:#fff;}</style></defs><title>icon--palette</title><g id="レイヤー_2" data-name="レイヤー 2"><g id="レイヤー_1-2" data-name="レイヤー 1"><path class="cls-1" d="M101.67,79.78V9.67A7.66,7.66,0,0,1,109.33,2h0A7.66,7.66,0,0,1,117,9.67V79.78"/><path class="cls-2" d="M123.16,99.75a13.92,13.92,0,1,0-27.83-.33c0,3.87,5.09,10.58,7,14.75,1.23,2.66,1,7.33.63,10.34a1.15,1.15,0,0,0,1.87,1c3.26-2.69,9.19-7.8,12.17-11.78C121.14,108.22,123.07,104.17,123.16,99.75Z"/><path class="cls-2" d="M89.94,14.88A56,56,0,0,0,0,61.32c.89,28.93,26.09,53.8,55,54.34a56.56,56.56,0,0,0,10-.7,11.08,11.08,0,0,0,6-18.82L59.07,84.35A15.33,15.33,0,1,1,78.4,60.67l0,0L89.94,72.06"/><circle class="cls-3" cx="32.13" cy="80.38" r="8.43"/><circle class="cls-3" cx="24.29" cy="51.8" r="8.43"/><circle class="cls-3" cx="45.92" cy="30.73" r="8.43"/><circle class="cls-3" cx="74.79" cy="38.03" r="8.43"/></g></g></svg>