<svg xmlns="http://www.w3.org/2000/svg" viewBox="0 0 141.09 97.41"><defs><style>.cls-1{fill:none;stroke:#fff;stroke-miterlimit:10;}.cls-2{fill:#ca3c5c;}</style></defs><title>icon--envelope</title><g id="レイヤー_2" data-name="レイヤー 2"><g id="レイヤー_1-2" data-name="レイヤー 1"><path class="cls-1" d="M70.3,96.91H5.47c-4.59,0-5-.38-5-4.93V4.83C.5,1.22,1.2.5,4.68.5H136c4,0,4.61.58,4.61,4.6V92.48c0,3.88-.56,4.42-4.52,4.43ZM6.06,11.3v80H134.94V11.39c-.8.62-1.36,1-1.89,1.47L73.44,60.92c-2.7,2.18-3.89,2.17-6.59,0q-4.56-3.69-9.1-7.42ZM132.71,6.12H8.33L70.16,56.56Z"/><path class="cls-2" d="M6.06,11.3,57.75,53.47q4.55,3.72,9.1,7.42c2.7,2.2,3.89,2.21,6.59,0l59.61-48.06c.53-.44,1.09-.85,1.89-1.47v79.9H6.06Z"/><path class="cls-2" d="M132.71,6.12,70.16,56.56,8.33,6.12Z"/></g></g></svg>