<svg xmlns="http://www.w3.org/2000/svg" viewBox="0 0 403.25 64.06"><defs><style>.cls-1{font-size:47.85px;fill:#ca3c5c;font-family:Marcellus-Regular, Marcellus;letter-spacing:0.4em;}.cls-2{fill:#006289;}</style></defs><title>logo--header</title><g id="レイヤー_2" data-name="レイヤー 2"><g id="レイヤー_1-2" data-name="レイヤー 1"><text class="cls-1" transform="translate(0 40.68)">SANSAIDO</text><path class="cls-2" d="M275.12,64c-1.35.22-1.16-.78-.35-2.34,1.33-2.61,8-13,13.74-22.45,5.54-9.08,6.45-9.35,6.87-9.48a2.88,2.88,0,0,0,.89-.42c.38-.25-.14.64-.92,1.2-.62.45-1.19,1.13-2.93,3.71-2,2.87-3.31,4.8-5.71,8.74-3.49,5.7-9.54,15.57-10.56,17.61-.63,1.25-1.1,2.45-.5,2.35s1.74-.5,8-3.85,11.1-6.18,11.83-6.55c.17-.06.61.09-.44.69C286.32,58.3,276.67,63.78,275.12,64Z"/><path class="cls-2" d="M296.31,46.13c-.61,1.12-.56,1.43-.53,1.42.54-.08,2.92-2.31,6.17-6.1,2.38-2.78,5.76-7.78,8.25-10.86.45-.57,1.36-1.12.29.21-2.12,2.61-5.73,8-8.43,11.16-3.06,3.61-5.53,5.91-6.46,6.06-.36.06-.46-.39.07-1.76.12-.29.79-1.65.81-1.78s.14-.58.32-.67c.42-.22.73.07.61.37S296.45,45.86,296.31,46.13Zm3.42-7.37a1.82,1.82,0,0,1,.74-.68c.12,0,.32.11.19.44a2.72,2.72,0,0,1-.92.93C299.56,39.47,299.65,39,299.73,38.76Z"/><path class="cls-2" d="M312.33,42a45.11,45.11,0,0,0-6.67,2.82c-1.26.64-2.36,1.23-3.29,1.75-.55,1-1.13,2.17-1.85,3.66.88.88,1.51,2.65.56,5.07s-4.5,7.08-5.85,7.3,2.32-7.56,4.11-11.37a7.93,7.93,0,0,0,.35-.74l-.47-.24c-1.13-.47-1.88-.56-1.75-.9s1.7-1.48,4.16-2.91c1-1.93,2.35-4.49,4.79-9.08,4.67-8.78,6.42-10.9,7.21-11.28.45-.23.71,0,.62.49s-.2.44-.45.51c-.52.11-1.8,1.32-6.39,10-2.41,4.59-3.61,6.75-4.67,8.73l2.08-1.15A51.79,51.79,0,0,1,313.55,41c.39,0,.29.27,0,.56A4.35,4.35,0,0,1,312.33,42Zm-11.06,5.15A18.42,18.42,0,0,0,298.51,49c-.07.17.7.2,1.51.78C300.43,48.92,300.83,48.1,301.27,47.19Zm-1.06,3.72-.44,1c-2.79,6-4.41,9.93-4,9.86s3.52-3.22,4.78-6.44C301.49,53,301,51.66,300.21,50.91Z"/><path class="cls-2" d="M311.79,45.64c-1.61.39-1.72-1-.5-2.59s2.63-2.42,3.2-2.39.5.51,0,1.32a9,9,0,0,1-3.39,2.57c0,.44.3.6.8.52A8.16,8.16,0,0,0,315,43.35c.36-.27.51-.14,0,.31A9.09,9.09,0,0,1,311.79,45.64Zm-.62-1.48a9.07,9.07,0,0,0,2.93-2.34c.21-.32.29-.61.11-.64s-1.42.54-2.47,2A4,4,0,0,0,311.17,44.16Z"/><path class="cls-2" d="M335.57,40.61a13.13,13.13,0,0,1,1-1.84c.13-.18.21-.32.31-.43a4.36,4.36,0,0,1-3.82-.62A13.42,13.42,0,0,1,330.84,41a5.34,5.34,0,0,1-2.34,1.69c-.6.09-.55-.38-.19-1.09.22-.41.56-.93.69-1.26.07-.17,0-.23-.09-.21a27.18,27.18,0,0,0-2.49,2.15c-1.88,1.58-2.46,2.08-2.94,2.22-.77.25-.66-.52-.44-1.08a28.94,28.94,0,0,1,3.11-5.23c1-1.35,1.41-1.76,1.65-1.8s.36-.06.1.23A37.27,37.27,0,0,0,323.76,43c-.3.7-.26.94-.05.91a11.68,11.68,0,0,0,2.69-2.09A12.33,12.33,0,0,1,329,39.71c.35-.06.54.19.41.52s-.59,1.22-.7,1.48-.15.46,0,.44a4.64,4.64,0,0,0,1.75-1.31,11.87,11.87,0,0,0,2.19-3.46l-.05-.09a.85.85,0,0,1-.12-.76,1.56,1.56,0,0,1,1-.8c.36-.06.25.42,0,1.05l-.19.47c.93.72,3,.79,4.31.45.13,0,.27.08.26.18a.67.67,0,0,1-.17.37,10.56,10.56,0,0,0-1.43,2.22c-.28.57-.24.91.07.77s.16.22-.15.36C335.34,42,335.2,41.48,335.57,40.61Zm3.78-6.09c.14-.21.51-.64.66-.6s.3.38.09.7-.74.74-.86.7S339.2,34.76,339.35,34.52Z"/><path class="cls-2" d="M358,21.85C350.11,32.56,341.45,42,339.26,42.28c-1.13.15-.67-1.38,4-9.55,1.09-1.92,2.06-3.54,2.9-4.92-.73.09-1.55.19-2.46.27s-1.16,0-1.49.09-.05-.21.18-.31a17.11,17.11,0,0,1,2.59-.45c.06,0,.52-.05,1.52-.18C348.74,23.7,350,22,350.3,22s.19.53-.2,1.15c-.26.39-1.31,1.59-1.89,2.27l-1,1.72,2.09-.34c2.76-.44,2.93-.59,2.86-.27s-.92.49-3.17.85l-.65.11c-.36.06-.88.17-1.47.24-.87,1.51-2,3.46-2.92,5.11-3,5.28-5.06,9-4.31,8.88,1.94-.32,13.57-13.59,18.18-20C358.21,21.1,358.43,21.32,358,21.85Z"/><path class="cls-2" d="M359.73,18.93c.27,0,0,.74-.16,1.05s-.91,1.18-1.55,2c-.12.17-2.19,3.59-3.91,6.63-2.46,4.29-4.59,8.37-5.5,10.2,2.2-1.54,3.51-2.53,4.18-2.67s.42.43.15,1.13c-.34.86-.56,1.27,0,1.18,2-.33,6.35-3,9.5-5.08.43-.26.59.12-.06.5-4.07,2.53-7.07,4.76-9.57,5.19-.86.14-1-.45-.7-1.28.19-.47.42-.85.24-.82a29.66,29.66,0,0,0-3.7,2.31,2.9,2.9,0,0,1-.82.51c-.18,0-.18-.32.18-1,1-2,3.07-6,5.6-10.46C357.77,20.93,359.25,19,359.73,18.93Z"/><path class="cls-2" d="M367.7,33a6,6,0,0,1,2.63-1.42c.69-.11.3.73.06.65s-1.13.15-2.39,1.1a6,6,0,0,0-2.13,2.37c-.25.69.56.84,1.6.55,2.32-.63,8.16-3.91,10.78-5.51.19-.13.8-.2.18.25a62.58,62.58,0,0,1-11,5.76c-1.49.46-2.59.39-2.29-.72A7.48,7.48,0,0,1,367.7,33Z"/><path class="cls-2" d="M374.36,36c-.36.78-.46,1.32,0,1.25,1.34-.21,4.38-3.48,5.51-6.37a5.76,5.76,0,0,0,.37-1.3,5.28,5.28,0,0,1-1.37.44c-.81.13-1.28-.16-.9-.94a2.48,2.48,0,0,1,1.67-1.17c.71-.12,1.23.14,1.33.81,3-1.83,7.25-6.65,12.1-13,.57-.75.75-.56.21.18C388,22.75,384,27.32,381,29.15a5.16,5.16,0,0,1-.37,1.52c-1.56,4-4.88,6.89-6.52,7.15-.75.12-.79-.71-.25-1.79a17.27,17.27,0,0,1,3.58-4.72c.41-.41.9-.8,1.2-.79.47,0,.3.17-.23.66A20,20,0,0,0,374.36,36Zm5.86-6.89a.71.71,0,0,0-.85-.7,1.24,1.24,0,0,0-.91.61c-.19.34.07.55.63.46A4.35,4.35,0,0,0,380.22,29.11Z"/><path class="cls-2" d="M380.22,38.48a172.33,172.33,0,0,1,8.28-15.94c4.27-7.41,5.72-9.32,6.2-9.4.27,0,0,.74-.19,1.06s-.91,1.17-1.55,2c-.13.18-2.22,3.6-3.94,6.64-1.46,2.57-5.43,9.59-8.33,15.79-1.44,3.09-1.1,3.38-1.41,3.46S379.07,41,380.22,38.48Z"/><path class="cls-2" d="M402.76,28.88c-2.71,2-5.2,3.36-6.32,3.42s-1.17-1,.13-2.7c.59-.78,1.43-1.72,1.5-1.89s0-.25-.48-.42a.58.58,0,0,1-.49-.54,21,21,0,0,1-5.93,3.85c-1.51,3.3-4.4,6.1-5.87,6.34-.77.12-.93-.63-.45-1.86A14.67,14.67,0,0,1,388,30.56a1.36,1.36,0,0,1,0-1.31,4.39,4.39,0,0,1,2.91-2.55c1.31-.21,1.38,1.17.61,3.17a18.33,18.33,0,0,0,5.6-3.46,2.39,2.39,0,0,1,.32-.8c.36-.65.9-.95,1.09-.92s.29.17.19.43-.27.26-.81.79l-.06.07a.64.64,0,0,0-.09.17.41.41,0,0,0,.31.57c.91.32,1,.43.86.73s-1.11,1.33-1.86,2.33-1.08,1.88,0,1.8,3.14-1.28,5.65-3C403.34,28.13,403.51,28.32,402.76,28.88Zm-12.27,2a3.1,3.1,0,0,1-2.19,0,9.93,9.93,0,0,0-.9,1,13.22,13.22,0,0,0-2,3.4c-.28.7-.24,1.1,0,1.06C386.57,36.14,389,33.72,390.49,30.84Zm-1.59-.58a2.35,2.35,0,0,0,1.92-.13c.05-.13.14-.27.2-.44.64-1.62.38-2.55-.45-2.41a2.66,2.66,0,0,0-1.88,1.58,1.43,1.43,0,0,0-.09,1.07,7.21,7.21,0,0,1,1.47-1.17c.18,0,.23.06.18.19S389.64,29.51,388.9,30.26Z"/></g></g></svg>