<svg xmlns="http://www.w3.org/2000/svg" viewBox="0 0 303.62 69.76"><defs><style>.cls-1{fill:#fff;}</style></defs><title>logo--footer</title><g id="レイヤー_2" data-name="レイヤー 2"><g id="レイヤー_1-2" data-name="レイヤー 1"><path class="cls-1" d="M12.63,5.1h-.44a5,5,0,0,0-.5-1A4.75,4.75,0,0,0,10.78,3a5.06,5.06,0,0,0-1.36-.84,5,5,0,0,0-1.89-.33,4.81,4.81,0,0,0-1.72.29,3.46,3.46,0,0,0-1.25.83,3.64,3.64,0,0,0-.77,1.27,4.92,4.92,0,0,0-.25,1.62,5,5,0,0,0,.8,2.72,16.09,16.09,0,0,0,2,2.56C7.15,12,8,12.79,9,13.64a30.8,30.8,0,0,1,2.61,2.63,15.24,15.24,0,0,1,2,2.85,6.76,6.76,0,0,1,.8,3.21,7.79,7.79,0,0,1-.45,2.58,6.43,6.43,0,0,1-1.37,2.32,6.94,6.94,0,0,1-2.39,1.68,8.79,8.79,0,0,1-3.48.64,10.5,10.5,0,0,1-2.14-.21,14.59,14.59,0,0,1-1.88-.51,11.83,11.83,0,0,1-1.54-.67A9.34,9.34,0,0,1,0,27.51l.45-4.37H1a6.14,6.14,0,0,0,.71,1.77,5.81,5.81,0,0,0,1.22,1.48,5.6,5.6,0,0,0,1.65,1,5.17,5.17,0,0,0,2,.39,4.91,4.91,0,0,0,1.81-.31,3.92,3.92,0,0,0,1.37-.85,3.49,3.49,0,0,0,.88-1.29,4.2,4.2,0,0,0,.31-1.64,5.87,5.87,0,0,0-.45-2.31,9.56,9.56,0,0,0-1.2-2A15.89,15.89,0,0,0,7.6,17.57C7,17,6.33,16.38,5.67,15.78s-1.3-1.21-1.92-1.85a14,14,0,0,1-1.68-2A10.14,10.14,0,0,1,.87,9.6,7.92,7.92,0,0,1,.42,6.88,6.48,6.48,0,0,1,1,4.06a6.57,6.57,0,0,1,1.6-2.14A7.06,7.06,0,0,1,4.88.55,7.53,7.53,0,0,1,7.49.08,9.34,9.34,0,0,1,9.31.24,12,12,0,0,1,10.8.61c.44.15.83.29,1.16.44l.81.35Z"/><path class="cls-1" d="M55,28.94v-.08a1,1,0,0,0,.06-.3c0-.13,0-.25,0-.36a6.23,6.23,0,0,0-.17-1.35A11.77,11.77,0,0,0,54.3,25l-2.39-5.37c-.74,0-1.72,0-2.95,0H42c-1,0-1.84,0-2.61,0l-2.28,5.21c-.19.49-.41,1-.63,1.61a4.9,4.9,0,0,0-.34,1.75,2.33,2.33,0,0,0,0,.43,1.39,1.39,0,0,0,.08.23v.08h-4v-.08a7.22,7.22,0,0,0,.89-1.34c.36-.64.74-1.44,1.17-2.4L45.58,0h1.58L57.9,24.15q.38.86.78,1.65c.27.54.52,1,.76,1.43s.44.78.63,1.07.31.48.37.56v.08Zm-12.81-11h2.35l2.37,0,2.22,0,1.94,0L45.54,5.26,40.09,17.89Z"/><path class="cls-1" d="M80.17.59l20.36,21.66V8.34c0-1.12,0-2.1,0-2.94s-.06-1.56-.12-2.17-.11-1.12-.18-1.53S100,1,100,.67V.59h3.52V.67a9.94,9.94,0,0,0-.22,1q-.11.62-.18,1.53c0,.61-.09,1.34-.12,2.17s0,1.82,0,2.94v21h-.69L81.87,7.69V21.21c0,1.12,0,2.09,0,2.93S82,25.7,82,26.31s.11,1.11.18,1.52a9.94,9.94,0,0,0,.22,1v.08H78.91v-.08c.08-.28.15-.62.23-1s.13-.92.18-1.52.1-1.33.12-2.17,0-1.81,0-2.93V8.34c0-1.12,0-2.1,0-2.94s-.06-1.56-.12-2.17-.11-1.12-.18-1.53S79,1,78.91.67V.59Z"/><path class="cls-1" d="M137,5.1h-.43a5.74,5.74,0,0,0-.51-1A4.75,4.75,0,0,0,135.13,3a5.06,5.06,0,0,0-1.36-.84,4.91,4.91,0,0,0-1.89-.33,4.84,4.84,0,0,0-1.72.29,3.37,3.37,0,0,0-2,2.1,4.91,4.91,0,0,0-.26,1.62,5.12,5.12,0,0,0,.8,2.72,16.18,16.18,0,0,0,2,2.56c.8.84,1.67,1.68,2.61,2.53a34.05,34.05,0,0,1,2.61,2.63,15.18,15.18,0,0,1,2,2.85,6.64,6.64,0,0,1,.8,3.21,8,8,0,0,1-.44,2.58,6.6,6.6,0,0,1-1.38,2.32,6.85,6.85,0,0,1-2.39,1.68,8.72,8.72,0,0,1-3.48.64,10.57,10.57,0,0,1-2.14-.21,14.59,14.59,0,0,1-1.88-.51,12.46,12.46,0,0,1-1.54-.67,10.21,10.21,0,0,1-1.12-.65l.46-4.37h.49a6.44,6.44,0,0,0,.71,1.77,6,6,0,0,0,1.22,1.48,5.6,5.6,0,0,0,1.65,1,5.22,5.22,0,0,0,2,.39,4.85,4.85,0,0,0,1.8-.31,4,4,0,0,0,1.38-.85,3.75,3.75,0,0,0,.88-1.29,4.39,4.39,0,0,0,.3-1.64,5.87,5.87,0,0,0-.45-2.31,9.15,9.15,0,0,0-1.2-2A15.89,15.89,0,0,0,132,17.57c-.62-.59-1.27-1.19-1.92-1.79s-1.31-1.21-1.93-1.85a14,14,0,0,1-1.68-2,10.56,10.56,0,0,1-1.2-2.31,7.92,7.92,0,0,1-.45-2.72,6.48,6.48,0,0,1,.6-2.82A6.71,6.71,0,0,1,127,1.92,7.17,7.17,0,0,1,129.23.55a7.57,7.57,0,0,1,2.61-.47,9.34,9.34,0,0,1,1.82.16,11.58,11.58,0,0,1,1.49.37,12,12,0,0,1,1.16.44l.81.35Z"/><path class="cls-1" d="M179.38,28.94v-.08a1,1,0,0,0,.06-.3c0-.13,0-.25,0-.36a5.66,5.66,0,0,0-.17-1.35,10.82,10.82,0,0,0-.64-1.85l-2.39-5.37c-.74,0-1.72,0-2.95,0h-7c-1,0-1.84,0-2.62,0l-2.27,5.21c-.2.49-.41,1-.64,1.61a4.89,4.89,0,0,0-.33,1.75,1.69,1.69,0,0,0,0,.43.59.59,0,0,0,.08.23v.08h-4v-.08a6.75,6.75,0,0,0,.89-1.34q.54-1,1.17-2.4L169.93,0h1.59l10.73,24.15q.38.86.78,1.65c.27.54.52,1,.76,1.43s.45.78.63,1.07.31.48.38.56v.08Zm-12.81-11h2.36l2.36,0,2.22,0,1.94,0L169.9,5.26l-5.46,12.63Z"/><path class="cls-1" d="M203.6,28.86a9.94,9.94,0,0,0,.22-1c.06-.41.12-.92.17-1.52s.1-1.33.12-2.17,0-1.81,0-2.93V8.34c0-1.12,0-2.1,0-2.94s-.06-1.56-.12-2.17-.11-1.12-.17-1.53a9.94,9.94,0,0,0-.22-1V.59h4.72V.67a9.94,9.94,0,0,0-.22,1,12.44,12.44,0,0,0-.18,1.53c0,.61-.09,1.34-.12,2.17s-.05,1.82-.05,2.94V21.21c0,1.12,0,2.09.05,2.93s.07,1.56.12,2.17a12.49,12.49,0,0,0,.18,1.52,9.94,9.94,0,0,0,.22,1v.08H203.6Z"/><path class="cls-1" d="M230.34.51l.85,0c.23,0,.46,0,.7,0h.57c.25,0,.67,0,1.25,0l2-.08,2.34-.08,2.29,0a20.26,20.26,0,0,1,5.45.71,12,12,0,0,1,4.55,2.33,11.24,11.24,0,0,1,3.1,4.25,16.2,16.2,0,0,1,1.15,6.46,18.3,18.3,0,0,1-.61,4.94,13.57,13.57,0,0,1-1.69,3.88,11.53,11.53,0,0,1-2.6,2.87,13.93,13.93,0,0,1-3.34,2,18,18,0,0,1-3.9,1.13,26.06,26.06,0,0,1-4.29.35c-.53,0-1.16,0-1.91-.05L234,29.09,231.9,29c-.67,0-1.19,0-1.56,0v-.08a9.68,9.68,0,0,0,.23-1c.07-.41.14-.92.19-1.52s.09-1.33.12-2.17,0-1.81,0-2.93V8.34c0-1.12,0-2.11,0-3s-.07-1.58-.12-2.19-.12-1.13-.19-1.55a9.62,9.62,0,0,0-.23-1Zm4.33,1.78c0,1.48,0,2.91-.08,4.29,0,.59,0,1.2,0,1.82s0,1.23,0,1.83,0,1.17,0,1.72V13.4c0,.88,0,1.95,0,3.2s0,2.54.05,3.86,0,2.58.09,3.79.09,2.22.14,3l.74.08c.31,0,.64.06,1,.08l1,0c.33,0,.61,0,.83,0a21.39,21.39,0,0,0,2.84-.19,12.22,12.22,0,0,0,2.8-.7,10.31,10.31,0,0,0,2.55-1.41,8.58,8.58,0,0,0,2.1-2.32,12,12,0,0,0,1.41-3.43,19.44,19.44,0,0,0,.51-4.74,18.09,18.09,0,0,0-.73-5.38,10.85,10.85,0,0,0-2.14-4,9.17,9.17,0,0,0-3.5-2.47,12.75,12.75,0,0,0-4.79-.84l-1.21,0-1.33.06-1.25.08C235.24,2.26,234.92,2.28,234.67,2.29Z"/><path class="cls-1" d="M288.36.12a16.82,16.82,0,0,1,6.1,1.08,14.27,14.27,0,0,1,4.83,3,13.64,13.64,0,0,1,3.18,4.67,15.5,15.5,0,0,1,1.15,6,15.87,15.87,0,0,1-.44,3.7,15.08,15.08,0,0,1-1.27,3.44,14.52,14.52,0,0,1-2.07,3,13.18,13.18,0,0,1-2.79,2.37A13.48,13.48,0,0,1,293.58,29a14.21,14.21,0,0,1-4.1.57,16.94,16.94,0,0,1-6.09-1.06,14,14,0,0,1-4.83-3,13.76,13.76,0,0,1-3.19-4.66,15.44,15.44,0,0,1-1.14-6,15.77,15.77,0,0,1,.43-3.69,15.26,15.26,0,0,1,1.28-3.46,14.48,14.48,0,0,1,2.05-3,13.31,13.31,0,0,1,2.79-2.38A13.76,13.76,0,0,1,284.26.68,14.26,14.26,0,0,1,288.36.12Zm1.12,27.65a10,10,0,0,0,4-.79,8.84,8.84,0,0,0,3.13-2.29A10.8,10.8,0,0,0,298.68,21a15.5,15.5,0,0,0,.73-4.91,22,22,0,0,0-.7-5.65A13.73,13.73,0,0,0,296.62,6a9.83,9.83,0,0,0-3.45-3,10.36,10.36,0,0,0-4.81-1.07,10.06,10.06,0,0,0-4,.78,8.71,8.71,0,0,0-3.14,2.26,10.45,10.45,0,0,0-2,3.64,15.12,15.12,0,0,0-.73,4.9,22.07,22.07,0,0,0,.69,5.64,13.62,13.62,0,0,0,2.07,4.54,10,10,0,0,0,3.46,3A10.2,10.2,0,0,0,289.48,27.77Z"/><path class="cls-1" d="M53.57,61c-.33-.78-1.14-2.29-1.81-3.52V69.67H50.07V58.39a25.3,25.3,0,0,1-2.9,6.6,8.68,8.68,0,0,0-.94-1.65,24.55,24.55,0,0,0,3.65-8.73H46.76V53h3.31V48.54h1.69V53H54.7v1.62H51.76v.77c.63.85,2.46,3.73,2.85,4.42ZM63,60.1a18.7,18.7,0,0,0,5,6.95,6,6,0,0,0-1.25,1.32,22.17,22.17,0,0,1-4.72-7.2v8.52h-1.7V61.38a20,20,0,0,1-5.62,7.18,6.24,6.24,0,0,0-1.19-1.32,17.73,17.73,0,0,0,5.84-7.14H54.86V58.53h5.49V54.45H57.48a14.09,14.09,0,0,1-1.5,3.4A6.6,6.6,0,0,0,54.56,57a18.4,18.4,0,0,0,2.37-7.37l1.59.28c-.16,1-.37,2-.6,3h2.43V48.57h1.7v4.31h4.51v1.57H62.05v4.08h5.32V60.1Z"/><path class="cls-1" d="M93.15,54.52C93.7,62.33,95.53,68,97.83,68c.62,0,.9-1.27,1-4.35a4.9,4.9,0,0,0,1.53.95c-.3,4-1,5.19-2.71,5.19-3.78,0-5.7-6.65-6.3-15.22h-12V52.85H91.27c-.07-1.36-.09-2.78-.11-4.19H93c0,1.44,0,2.83.1,4.19h6.85v1.67ZM86.06,66c1.62-.35,3.29-.68,5-1l.14,1.51c-3.92,1-8.16,1.92-11.1,2.57l-.53-1.69,4.84-1V59.64H80.25V58H90.39v1.67H86.06Zm11.7-13.42a19.85,19.85,0,0,0-3.29-2.89l1.16-1A19.92,19.92,0,0,1,99,51.49Z"/><path class="cls-1" d="M123,48.59a24.83,24.83,0,0,0,10.1,7.92A9.5,9.5,0,0,0,132,58a28.46,28.46,0,0,1-9.78-7.81,26.42,26.42,0,0,1-9.56,7.9,5.47,5.47,0,0,0-1-1.36,24.34,24.34,0,0,0,9.59-8.18ZM112.85,60.1h19v1.6H121c-.81,1.71-1.81,3.71-2.73,5.33,2.87-.1,6.14-.21,9.38-.35a36.34,36.34,0,0,0-3.06-3.13l1.46-.78a30.5,30.5,0,0,1,5.44,6l-1.55,1a14.42,14.42,0,0,0-1.06-1.55c-5.68.28-11.68.53-15.64.67L113,67.19l3.4-.09A43.24,43.24,0,0,0,119,61.7h-6.1Zm14.9-4.4v1.58h-11V55.7Z"/><path class="cls-1" d="M153,63c-.6-.67-1.88-2-2.92-2.94v9.59h-1.69v-9a22.23,22.23,0,0,1-3.54,2.9,7.8,7.8,0,0,0-.91-1.55,20,20,0,0,0,7.25-7.6h-6.44V52.88h3.64V48.57h1.69v4.31h2l.3-.07,1,.64a20.64,20.64,0,0,1-3,5c1.09.86,3.13,2.64,3.71,3.15Zm12.76,4.31V69h-13V67.35h5.86V57.74h-4.95V56.07h4.95V48.73h1.72v7.34h4.93v1.67h-4.93v9.61Z"/><path class="cls-1" d="M197.57,66.29V68H177.63V66.29Zm-1.25-15.5V52.5H179V50.79Zm-1.8,7.5V60H180.43V58.29Z"/><path class="cls-1" d="M217.49,60.68a23.73,23.73,0,0,1,4.12,4.08l-1.18,1.13a21,21,0,0,0-3.31-3.59v7.37h-1.67v-7a22.52,22.52,0,0,1-5,5.33,5.84,5.84,0,0,0-1-1.49,17.87,17.87,0,0,0,5.52-5.88h-4.84V59.11h5.37V56.7h1.67v2.41h4.77v1.57Zm4.42-10.42a63.51,63.51,0,0,1-11.53,1.66,4.29,4.29,0,0,0-.47-1.43,60.69,60.69,0,0,0,10.94-1.67Zm-9.31,6.92a13.73,13.73,0,0,0-2-3.73l1.29-.57A13.57,13.57,0,0,1,214,56.51Zm3.59-.85a16.18,16.18,0,0,0-1.5-3.69l1.34-.39a15.35,15.35,0,0,1,1.6,3.59Zm1.95.34a32.93,32.93,0,0,0,2.06-4.51l1.67.46c-.77,1.55-1.69,3.38-2.43,4.52Zm13,5.77a19.8,19.8,0,0,1-8.62,7.27,6.37,6.37,0,0,0-1.23-1.46,16.89,16.89,0,0,0,8.16-6.48ZM229.9,49.66a22.43,22.43,0,0,1-6.23,5.28,7.45,7.45,0,0,0-1.29-1.28,18.48,18.48,0,0,0,5.83-4.7Zm.61,6.32a24.14,24.14,0,0,1-6.72,5.51,7.13,7.13,0,0,0-1.25-1.27,20.72,20.72,0,0,0,6.35-5Z"/><path class="cls-1" d="M263,67.54v1.53H242.92V67.54H252V64.76h-7.11V63.25H252V61h-5.46V55.63h12.78V61h-5.63v2.29h7.51v1.51h-7.51v2.78ZM244.68,57.3H243.1v-5h4a20.09,20.09,0,0,0-1.88-2.83l1.51-.6a14.72,14.72,0,0,1,2.13,3l-.86.39h4V48.57h1.69v3.68H258l-1-.39a25.25,25.25,0,0,0,2.11-3.13l1.76.62a25.4,25.4,0,0,1-2.34,2.9h4.31v5h-1.67V53.78H244.68Zm3.52,2.27h9.47V57H248.2Z"/></g></g></svg>