<svg xmlns="http://www.w3.org/2000/svg"
     width="200"
     height="200"
     viewBox="0 0 200 200">
 
  <circle cx="100" cy="100" r="100" fill="#ca3c5c"/>

  
  <svg x="-365" y="25"
       width="1000"
       height="280"
       viewBox="0 0 28 56"
       preserveAspectRatio="xMidYMid meet">

    <path fill="white" d="M12.63,5.1h-.44a5,5,0,0,0-.5-1A4.75,4.75,0,0,0,10.78,3a5.06,5.06,0,0,0-1.36-.84,5,5,0,0,0-1.89-.33,4.81,4.81,0,0,0-1.72.29,3.46,3.46,0,0,0-1.25.83,3.64,3.64,0,0,0-.77,1.27,4.92,4.92,0,0,0-.25,1.62,5,5,0,0,0,.8,2.72,16.09,16.09,0,0,0,2,2.56C7.15,12,8,12.79,9,13.64a30.8,30.8,0,0,1,2.61,2.63,15.24,15.24,0,0,1,2,2.85,6.76,6.76,0,0,1,.8,3.21,7.79,7.79,0,0,1-.45,2.58,6.43,6.43,0,0,1-1.37,2.32,6.94,6.94,0,0,1-2.39,1.68,8.79,8.79,0,0,1-3.48.64,10.5,10.5,0,0,1-2.14-.21,14.59,14.59,0,0,1-1.88-.51,11.83,11.83,0,0,1-1.54-.67A9.34,9.34,0,0,1,0,27.51l.45-4.37H1a6.14,6.14,0,0,0,.71,1.77,5.81,5.81,0,0,0,1.22,1.48,5.6,5.6,0,0,0,1.65,1,5.17,5.17,0,0,0,2,.39,4.91,4.91,0,0,0,1.81-.31,3.92,3.92,0,0,0,1.37-.85,3.49,3.49,0,0,0,.88-1.29,4.2,4.2,0,0,0,.31-1.64,5.87,5.87,0,0,0-.45-2.31,9.56,9.56,0,0,0-1.2-2A15.89,15.89,0,0,0,7.6,17.57C7,17,6.33,16.38,5.67,15.78s-1.3-1.21-1.92-1.85a14,14,0,0,1-1.68-2A10.14,10.14,0,0,1,.87,9.6,7.92,7.92,0,0,1,.42,6.88,6.48,6.48,0,0,1,1,4.06a6.57,6.57,0,0,1,1.6-2.14A7.06,7.06,0,0,1,4.88.55,7.53,7.53,0,0,1,7.49.08,9.34,9.34,0,0,1,9.31.24,12,12,0,0,1,10.8.61c.44.15.83.29,1.16.44l.81.35Z"/>
  </svg>

</svg>